<?xml version="1.0" encoding="UTF-8" standalone="no"?>
<!-- Created with Inkscape (http://www.inkscape.org/) -->

<svg
   version="1.1"
   id="svg194662"
   width="626.37036"
   height="405.33334"
   viewBox="0 0 626.37036 405.33334"
   sodipodi:docname="Noname compact cassette, black shell.svg"
   inkscape:version="1.2.2 (732a01da63, 2022-12-09)"
   xmlns:inkscape="http://www.inkscape.org/namespaces/inkscape"
   xmlns:sodipodi="http://sodipodi.sourceforge.net/DTD/sodipodi-0.dtd"
   xmlns:xlink="http://www.w3.org/1999/xlink"
   xmlns="http://www.w3.org/2000/svg"
   xmlns:svg="http://www.w3.org/2000/svg">
  <defs
     id="defs194666">
    <linearGradient
       inkscape:collect="always"
       id="linearGradient216941">
      <stop
         style="stop-color:#afafaf;stop-opacity:0.27044025;"
         offset="0"
         id="stop216937" />
      <stop
         style="stop-color:#e9e9e9;stop-opacity:0.2389937;"
         offset="1"
         id="stop216939" />
    </linearGradient>
    <filter
       style="color-interpolation-filters:sRGB"
       inkscape:label="Drop Shadow"
       id="filter199320"
       x="-0.017181914"
       y="-0.021474725"
       width="1.0309679"
       height="1.0455944">
      <feFlood
         flood-opacity="0.576471"
         flood-color="rgb(0,0,0)"
         result="flood"
         id="feFlood199310" />
      <feComposite
         in="flood"
         in2="SourceGraphic"
         operator="out"
         result="composite1"
         id="feComposite199312" />
      <feGaussianBlur
         in="composite1"
         stdDeviation="3.1746"
         result="blur"
         id="feGaussianBlur199314" />
      <feOffset
         dx="-2"
         dy="1"
         result="offset"
         id="feOffset199316" />
      <feComposite
         in="offset"
         in2="SourceGraphic"
         operator="atop"
         result="composite2"
         id="feComposite199318" />
    </filter>
    <filter
       style="color-interpolation-filters:sRGB"
       inkscape:label="Drop Shadow"
       id="filter200082"
       x="-0.010535289"
       y="-0.055195983"
       width="1.0193983"
       height="1.1208063">
      <feFlood
         flood-opacity="0.576471"
         flood-color="rgb(0,0,0)"
         result="flood"
         id="feFlood200072" />
      <feComposite
         in="flood"
         in2="SourceGraphic"
         operator="out"
         result="composite1"
         id="feComposite200074" />
      <feGaussianBlur
         in="composite1"
         stdDeviation="2"
         result="blur"
         id="feGaussianBlur200076" />
      <feOffset
         dx="-1"
         dy="1"
         result="offset"
         id="feOffset200078" />
      <feComposite
         in="offset"
         in2="SourceGraphic"
         operator="atop"
         result="composite2"
         id="feComposite200080" />
    </filter>
    <filter
       style="color-interpolation-filters:sRGB"
       inkscape:label="Drop Shadow"
       id="filter202205"
       x="-0.043911889"
       y="-0.14644223"
       width="1.075275"
       height="1.3280404">
      <feFlood
         flood-opacity="0.576471"
         flood-color="rgb(0,0,0)"
         result="flood"
         id="feFlood202195" />
      <feComposite
         in="flood"
         in2="SourceGraphic"
         operator="in"
         result="composite1"
         id="feComposite202197" />
      <feGaussianBlur
         in="composite1"
         stdDeviation="5"
         result="blur"
         id="feGaussianBlur202199" />
      <feOffset
         dx="-5"
         dy="3"
         result="offset"
         id="feOffset202201" />
      <feComposite
         in="SourceGraphic"
         in2="offset"
         operator="over"
         result="composite2"
         id="feComposite202203" />
    </filter>
    <linearGradient
       inkscape:collect="always"
       xlink:href="#linearGradient216941"
       id="linearGradient216943"
       x1="327.57263"
       y1="222.94654"
       x2="453.90904"
       y2="222.94654"
       gradientUnits="userSpaceOnUse"
       gradientTransform="matrix(1.0152444,0,0,1.4816566,-5.4635193,-98.858795)" />
  </defs>
  <sodipodi:namedview
     id="namedview194664"
     pagecolor="#ffffff"
     bordercolor="#cccccc"
     borderopacity="1"
     inkscape:showpageshadow="0"
     inkscape:pageopacity="1"
     inkscape:pagecheckerboard="0"
     inkscape:deskcolor="#d1d1d1"
     showgrid="false"
     inkscape:zoom="2.3864854"
     inkscape:cx="245.13035"
     inkscape:cy="230.25492"
     inkscape:window-width="2560"
     inkscape:window-height="1361"
     inkscape:window-x="-9"
     inkscape:window-y="-9"
     inkscape:window-maximized="1"
     inkscape:current-layer="g194668" />
  <g
     inkscape:groupmode="layer"
     inkscape:label="Image"
     id="g194668"
     transform="translate(-81.185188,-46.222221)">
    <path
       id="path198550-1-3"
       style="fill:#d1cec6;fill-opacity:1;fill-rule:evenodd;stroke:#bbbbbb;stroke-width:1;stroke-linecap:round;stroke-linejoin:round;stroke-dasharray:none;stroke-opacity:1"
       d="m -657.66955,-368.37401 a 49.099186,49.099182 0 0 0 -49.09765,49.09961 49.099186,49.099182 0 0 0 49.09765,49.09961 49.099186,49.099182 0 0 0 49.09961,-49.09961 49.099186,49.099182 0 0 0 -49.09961,-49.09961 z m -1.05468,20.87695 a 28.203426,28.351572 0 0 1 8.24023,1.37891 l -1.70703,3.85352 c -0.3331,0.75199 0.0713,1.65554 0.90625,2.02539 l 4.63672,2.05273 c 0.83495,0.36984 1.77627,0.0625 2.10937,-0.68945 l 1.64454,-3.71094 a 28.203426,28.351572 0 0 1 11.74414,17.61914 l -3.7129,0.36328 c -0.81854,0.0801 -1.40538,0.8763 -1.3164,1.78516 l 0.49414,5.05078 c 0.089,0.90885 0.81818,1.57623 1.63672,1.49609 l 3.27734,-0.32031 a 28.203426,28.351572 0 0 1 -8.72656,18.08594 l -2.46289,-3.5918 c -0.46498,-0.67841 -1.44597,-0.80925 -2.19922,-0.29297 l -4.18555,2.86914 c -0.75325,0.51627 -0.98646,1.47785 -0.52148,2.15625 l 2.46289,3.59375 a 28.203426,28.351572 0 0 1 -12.32031,2.97852 28.203426,28.351572 0 0 1 -6.45703,-0.83594 l 1.96289,-4.43359 c 0.3331,-0.75199 -0.0713,-1.65554 -0.90625,-2.02539 l -4.63868,-2.05469 c -0.83494,-0.36984 -1.77627,-0.0625 -2.10937,0.68945 l -2.06445,4.66211 a 28.203426,28.351572 0 0 1 -12.64844,-16.17773 l 5.07617,-0.4961 c 0.81855,-0.0801 1.40539,-0.87629 1.31641,-1.78515 l -0.49414,-5.04883 c -0.089,-0.90886 -0.82012,-1.57623 -1.63868,-1.49609 l -5.59179,0.54687 a 28.203426,28.351572 0 0 1 8.77539,-20.37695 l 2.65625,3.87695 c 0.46498,0.67841 1.44597,0.80925 2.19922,0.29297 l 4.18359,-2.86719 c 0.75326,-0.51628 0.98647,-1.47784 0.52149,-2.15625 l -2.68555,-3.91797 a 28.203426,28.351572 0 0 1 12.54297,-3.09961 z" />
    <path
       id="path198550-1-5-4"
       style="fill:#d1cec6;fill-opacity:1;fill-rule:evenodd;stroke:#bbbbbb;stroke-width:1;stroke-linecap:round;stroke-linejoin:round;stroke-dasharray:none;stroke-opacity:1"
       d="m -411.68738,-370.09731 a 49.099186,49.099182 0 0 0 -49.09765,49.09961 49.099186,49.099182 0 0 0 49.09765,49.09961 49.099186,49.099182 0 0 0 49.09961,-49.09961 49.099186,49.099182 0 0 0 -49.09961,-49.09961 z m -1.05468,20.87695 a 28.203426,28.351572 0 0 1 8.24023,1.37891 l -1.70703,3.85352 c -0.3331,0.75199 0.0713,1.65554 0.90625,2.02539 l 4.63672,2.05273 c 0.83495,0.36984 1.77627,0.0625 2.10937,-0.68945 l 1.64454,-3.71094 a 28.203426,28.351572 0 0 1 11.74414,17.61914 l -3.7129,0.36328 c -0.81854,0.0801 -1.40538,0.8763 -1.3164,1.78516 l 0.49414,5.05078 c 0.089,0.90885 0.81818,1.57623 1.63672,1.49609 l 3.27734,-0.32031 a 28.203426,28.351572 0 0 1 -8.72656,18.08594 l -2.46289,-3.5918 c -0.46498,-0.67841 -1.44597,-0.80925 -2.19922,-0.29297 l -4.18555,2.86914 c -0.75325,0.51627 -0.98646,1.47785 -0.52148,2.15625 l 2.46289,3.59375 a 28.203426,28.351572 0 0 1 -12.32031,2.97852 28.203426,28.351572 0 0 1 -6.45703,-0.83594 l 1.96289,-4.43359 c 0.3331,-0.75199 -0.0713,-1.65554 -0.90625,-2.02539 l -4.63868,-2.05469 c -0.83494,-0.36984 -1.77627,-0.0625 -2.10937,0.68945 l -2.06445,4.66211 a 28.203426,28.351572 0 0 1 -12.64844,-16.17773 l 5.07617,-0.4961 c 0.81855,-0.0801 1.40539,-0.87629 1.31641,-1.78515 l -0.49414,-5.04883 c -0.089,-0.90886 -0.82012,-1.57623 -1.63868,-1.49609 l -5.59179,0.54687 a 28.203426,28.351572 0 0 1 8.77539,-20.37695 l 2.65625,3.87695 c 0.46498,0.67841 1.44597,0.80925 2.19922,0.29297 l 4.18359,-2.86719 c 0.75326,-0.51628 0.98647,-1.47784 0.52149,-2.15625 l -2.68555,-3.91797 a 28.203426,28.351572 0 0 1 12.54297,-3.09961 z" />
    <g
       id="g58124">
      <path
         id="rect194789-1"
         style="fill:#424242;fill-opacity:1;fill-rule:evenodd;stroke:#000000;stroke-width:1;stroke-linecap:round;stroke-linejoin:round;stroke-dasharray:none;stroke-opacity:1;filter:url(#filter200082)"
         d="m 95.359375,308.91016 c -1.702648,0 -3.072266,1.59905 -3.072266,3.58593 v 88.84961 c 0,1.98689 1.369618,3.58594 3.072266,3.58594 H 114.8125 v -96.02148 z m 570.054685,0 v 96.02148 h 21.78906 c 1.70265,0 3.07422,-1.59905 3.07422,-3.58594 v -88.84961 c 0,-1.98688 -1.37157,-3.58593 -3.07422,-3.58593 z" />
      <path
         id="path198550-1"
         style="fill:#d1cec6;fill-opacity:1;fill-rule:evenodd;stroke:#bbbbbb;stroke-width:1;stroke-linecap:round;stroke-linejoin:round;stroke-dasharray:none;stroke-opacity:1"
         d="m 269.8687,184.91999 a 49.099186,49.099182 0 0 0 -49.09765,49.09961 49.099186,49.099182 0 0 0 49.09765,49.09961 49.099186,49.099182 0 0 0 49.09961,-49.09961 49.099186,49.099182 0 0 0 -49.09961,-49.09961 z m -1.05468,20.87695 a 28.203426,28.351572 0 0 1 8.24023,1.37891 l -1.70703,3.85352 c -0.3331,0.75199 0.0713,1.65554 0.90625,2.02539 l 4.63672,2.05273 c 0.83495,0.36984 1.77627,0.0625 2.10937,-0.68945 l 1.64454,-3.71094 a 28.203426,28.351572 0 0 1 11.74414,17.61914 l -3.7129,0.36328 c -0.81854,0.0801 -1.40538,0.8763 -1.3164,1.78516 l 0.49414,5.05078 c 0.089,0.90885 0.81818,1.57623 1.63672,1.49609 l 3.27734,-0.32031 a 28.203426,28.351572 0 0 1 -8.72656,18.08594 l -2.46289,-3.5918 c -0.46498,-0.67841 -1.44597,-0.80925 -2.19922,-0.29297 l -4.18555,2.86914 c -0.75325,0.51627 -0.98646,1.47785 -0.52148,2.15625 l 2.46289,3.59375 a 28.203426,28.351572 0 0 1 -12.32031,2.97852 28.203426,28.351572 0 0 1 -6.45703,-0.83594 l 1.96289,-4.43359 c 0.3331,-0.75199 -0.0713,-1.65554 -0.90625,-2.02539 l -4.63868,-2.05469 c -0.83494,-0.36984 -1.77627,-0.0625 -2.10937,0.68945 l -2.06445,4.66211 a 28.203426,28.351572 0 0 1 -12.64844,-16.17773 l 5.07617,-0.4961 c 0.81855,-0.0801 1.40539,-0.87629 1.31641,-1.78515 l -0.49414,-5.04883 c -0.089,-0.90886 -0.82012,-1.57623 -1.63868,-1.49609 l -5.59179,0.54687 a 28.203426,28.351572 0 0 1 8.77539,-20.37695 l 2.65625,3.87695 c 0.46498,0.67841 1.44597,0.80925 2.19922,0.29297 l 4.18359,-2.86719 c 0.75326,-0.51628 0.98647,-1.47784 0.52149,-2.15625 l -2.68555,-3.91797 a 28.203426,28.351572 0 0 1 12.54297,-3.09961 z" />
      <path
         id="path198550-1-5"
         style="fill:#d1cec6;fill-opacity:1;fill-rule:evenodd;stroke:#bbbbbb;stroke-width:1;stroke-linecap:round;stroke-linejoin:round;stroke-dasharray:none;stroke-opacity:1"
         d="m 515.85087,183.19669 a 49.099186,49.099182 0 0 0 -49.09765,49.09961 49.099186,49.099182 0 0 0 49.09765,49.09961 49.099186,49.099182 0 0 0 49.09961,-49.09961 49.099186,49.099182 0 0 0 -49.09961,-49.09961 z m -1.05468,20.87695 a 28.203426,28.351572 0 0 1 8.24023,1.37891 l -1.70703,3.85352 c -0.3331,0.75199 0.0713,1.65554 0.90625,2.02539 l 4.63672,2.05273 c 0.83495,0.36984 1.77627,0.0625 2.10937,-0.68945 l 1.64454,-3.71094 a 28.203426,28.351572 0 0 1 11.74414,17.61914 l -3.7129,0.36328 c -0.81854,0.0801 -1.40538,0.8763 -1.3164,1.78516 l 0.49414,5.05078 c 0.089,0.90885 0.81818,1.57623 1.63672,1.49609 l 3.27734,-0.32031 a 28.203426,28.351572 0 0 1 -8.72656,18.08594 l -2.46289,-3.5918 c -0.46498,-0.67841 -1.44597,-0.80925 -2.19922,-0.29297 l -4.18555,2.86914 c -0.75325,0.51627 -0.98646,1.47785 -0.52148,2.15625 l 2.46289,3.59375 a 28.203426,28.351572 0 0 1 -12.32031,2.97852 28.203426,28.351572 0 0 1 -6.45703,-0.83594 l 1.96289,-4.43359 c 0.3331,-0.75199 -0.0713,-1.65554 -0.90625,-2.02539 l -4.63868,-2.05469 c -0.83494,-0.36984 -1.77627,-0.0625 -2.10937,0.68945 l -2.06445,4.66211 a 28.203426,28.351572 0 0 1 -12.64844,-16.17773 l 5.07617,-0.4961 c 0.81855,-0.0801 1.40539,-0.87629 1.31641,-1.78515 l -0.49414,-5.04883 c -0.089,-0.90886 -0.82012,-1.57623 -1.63868,-1.49609 l -5.59179,0.54687 a 28.203426,28.351572 0 0 1 8.77539,-20.37695 l 2.65625,3.87695 c 0.46498,0.67841 1.44597,0.80925 2.19922,0.29297 l 4.18359,-2.86719 c 0.75326,-0.51628 0.98647,-1.47784 0.52149,-2.15625 l -2.68555,-3.91797 a 28.203426,28.351572 0 0 1 12.54297,-3.09961 z" />
      <path
         id="rect213346"
         style="fill:#542824;fill-opacity:1;fill-rule:evenodd;stroke-width:2.15472;stroke-linecap:round;stroke-linejoin:round"
         d="m 323.6994,195.68526 h 93.25987 c 0.11698,0 0.19665,0.15825 0.21115,0.35304 1.75767,23.60949 1.51119,45.59193 0,66.54763 -0.0141,0.19483 -0.0942,0.35304 -0.21115,0.35304 H 323.6994 c -0.11698,0 -0.21115,-0.15746 -0.21115,-0.35304 V 196.0383 c 0,-0.19558 0.0942,-0.35304 0.21115,-0.35304 z"
         sodipodi:nodetypes="sssssssss" />
      <rect
         style="opacity:1;fill:url(#linearGradient216943);fill-opacity:1;fill-rule:evenodd;stroke:#181818;stroke-width:5;stroke-linecap:round;stroke-linejoin:round;stroke-dasharray:none;stroke-opacity:1"
         id="rect215219"
         width="128.26233"
         height="62.395725"
         x="327.10278"
         y="200.27356"
         rx="0.28721306"
         ry="0.51717395" />
      <path
         id="rect194789"
         style="fill:#333333;fill-opacity:1;fill-rule:evenodd;stroke:#969696;stroke-width:1;stroke-linecap:round;stroke-linejoin:round;stroke-dasharray:none;stroke-opacity:1;filter:url(#filter199320)"
         d="m 111.72266,58.295646 c -8.05363,0 -14.537113,6.146661 -14.537113,13.78125 V 422.58861 c 0,7.63461 6.483483,13.78125 14.537113,13.78125 h 559.86132 c 8.05363,0 14.53711,-6.14664 14.53711,-13.78125 V 72.076896 c 0,-7.634589 -6.48348,-13.78125 -14.53711,-13.78125 z m 403.1289,140.345704 c 18.48488,3.9e-4 33.46943,14.98582 33.46875,33.4707 -3.9e-4,18.48412 -14.98463,33.46836 -33.46875,33.46875 -18.48412,-3.9e-4 -33.46836,-14.98463 -33.46875,-33.46875 -6.8e-4,-18.48488 14.98387,-33.47031 33.46875,-33.4707 z m -246.40625,1.29687 c 18.48412,3.9e-4 33.46836,14.98463 33.46875,33.46875 6.9e-4,18.48488 -14.98387,33.47032 -33.46875,33.47071 -18.48564,6.8e-4 -33.47139,-14.98507 -33.4707,-33.47071 3.9e-4,-18.48488 14.98582,-33.46943 33.4707,-33.46875 z m 60.25391,0.19532 h 124.50586 c 0.91318,0 1.64792,0.66798 1.64844,1.49804 l 0.037,59.494 c 5.1e-4,0.83005 -0.14267,1.27474 -1.05585,1.27582 l -124.98734,0.14815 c -0.91318,0.001 -1.8717,-0.89021 -1.87066,-1.72026 l 0.0741,-59.19771 c 10e-4,-0.83006 0.73526,-1.49804 1.64844,-1.49804 z m -96.67969,183.79297 h 314.92383 c 4.60651,0 8.31641,3.57429 8.31641,8.01562 v 29.30078 c 0,4.44133 -3.7099,8.01563 -8.31641,8.01563 H 232.01953 c -4.60651,0 -8.31641,-3.5743 -8.31641,-8.01563 v -29.30078 c 0,-4.44133 3.7099,-8.01563 8.31641,-8.01562 z"
         sodipodi:nodetypes="ssssssssscccccccccccsssssssscssssssscs" />
      <path
         id="rect38672-2"
         style="fill:#f2efe7;fill-opacity:1;fill-rule:evenodd;stroke:#a2a2a2;stroke-width:1.694;stroke-linecap:round;stroke-linejoin:round;stroke-opacity:1"
         d="M 130.87269 86.222221 C 128.62504 86.222221 126.81409 88.114549 126.81409 90.464408 L 126.81409 328.49956 C 126.81409 330.84942 128.62504 332.7398 130.87269 332.7398 L 654.31409 332.7398 C 656.56174 332.7398 658.37073 330.84942 658.37073 328.49956 L 658.37073 90.464408 C 658.37073 88.114549 656.56174 86.222221 654.31409 86.222221 L 130.87269 86.222221 z M 184.20472 187.25933 L 595.64613 187.25933 C 597.89377 187.25933 599.70472 189.15166 599.70472 191.50152 L 599.70472 270.12847 C 599.70472 272.47833 597.89377 274.37066 595.64613 274.37066 L 184.20472 274.37066 C 181.95707 274.37066 180.14808 272.47833 180.14808 270.12847 L 180.14808 191.50152 C 180.14808 189.15166 181.95707 187.25933 184.20472 187.25933 z " />
      <path
         id="path200595"
         style="fill:#333333;fill-opacity:1;fill-rule:evenodd;stroke:#000000;stroke-width:0.993;stroke-linecap:round;stroke-linejoin:round;stroke-dasharray:none;stroke-opacity:1;filter:url(#filter202205)"
         d="m 208.29688,347.85156 -17.7793,81.77735 -0.81446,3.4082 398.44532,0.14844 -18.3711,-84.74024 z m 261.38281,46.46485 h 6.33203 c 4.60649,0 8.31445,3.57626 8.31445,8.01757 v 5.00196 c 0,4.44131 -3.70796,8.01758 -8.31445,8.01758 h -6.33203 c -4.60652,0 -8.31641,-3.57627 -8.31641,-8.01758 v -5.00196 c 0,-4.44131 3.70989,-8.01757 8.31641,-8.01757 z m -164.91992,0.0547 h 6.33203 c 4.6065,0 8.3164,3.5743 8.3164,8.01563 v 5.0039 c 0,4.44134 -3.7099,8.01758 -8.3164,8.01758 h -6.33203 c -4.60652,0 -8.31446,-3.57624 -8.31446,-8.01758 v -5.0039 c 0,-4.44133 3.70794,-8.01563 8.31446,-8.01563 z m -55.9961,5.78516 a 13.494677,13.494677 0 0 1 13.49414,13.49609 13.494677,13.494677 0 0 1 -13.49414,13.49414 13.494677,13.494677 0 0 1 -13.49609,-13.49414 13.494677,13.494677 0 0 1 13.49609,-13.49609 z m 283.15039,0.23828 a 13.494677,13.494677 0 0 1 13.49414,13.49609 13.494677,13.494677 0 0 1 -13.49414,13.49415 13.494677,13.494677 0 0 1 -13.49609,-13.49415 13.494677,13.494677 0 0 1 13.49609,-13.49609 z" />
      <path
         style="fill:#fddddd;fill-opacity:1;fill-rule:evenodd;stroke:none;stroke-width:3;stroke-linecap:round;stroke-linejoin:round;stroke-dasharray:none;stroke-opacity:1"
         d="m 133.33333,132.74074 c 4.54321,0 9.08642,0 13.62963,0"
         id="path212960" />
      <path
         style="fill:#fddddd;fill-opacity:1;fill-rule:evenodd;stroke:#5b5537;stroke-width:2;stroke-linecap:round;stroke-linejoin:round;stroke-dasharray:none;stroke-opacity:1"
         d="m 145.82167,129.70166 501.33329,0.29629"
         id="path213018-7"
         sodipodi:nodetypes="cc" />
      <path
         style="fill:#fddddd;fill-opacity:1;fill-rule:evenodd;stroke:#5b5537;stroke-width:2;stroke-linecap:round;stroke-linejoin:round;stroke-dasharray:none;stroke-opacity:1"
         d="m 145.73394,159.59393 500.88892,0.14814"
         id="path213018-2-8"
         sodipodi:nodetypes="cc" />
    </g>
  </g>
</svg>
