<svg width="129" height="300" viewBox="0 0 129 300" fill="none" xmlns="http://www.w3.org/2000/svg">
<g clip-path="url(#clip0_1_2)">
<path fill-rule="evenodd" clip-rule="evenodd" d="M99.256 299.77C105.531 299.499 117.289 296.001 120.072 271.976C123.198 244.988 127.329 180.256 128.033 134.95C128.251 118.187 128.6 101.415 128.219 84.6629C127.411 64.3378 125.629 44.0632 122.647 23.9593C118.994 -0.543293 104.701 0.582659 64.1791 0.179532C22.8395 -0.23172 9.36318 -0.673591 5.71129 23.8239C2.72871 43.9284 0.963858 64.2024 0.155729 84.5275C-0.225523 101.279 0.124577 118.052 0.342078 134.815C1.04589 180.122 5.17643 244.852 8.30263 271.84C11.0855 295.864 22.8266 299.346 29.1016 299.618C52.4805 300.112 75.8733 300.27 99.256 299.77Z" fill="#3d4450"/>
<path fill-rule="evenodd" clip-rule="evenodd" d="M63.818 2.76874C54.0142 2.76874 31.5953 3.66822 29.4522 3.95397C26.5486 4.34147 15.5128 4.14553 12.8028 18.4693C10.0929 32.7938 7.28138 50.7012 6.41719 68.2144C4.30518 105.975 4.17244 138.034 17.6466 165.978C22.9283 176.932 36.6716 197.074 63.7499 197.074C91.1013 197.074 107.468 177.202 112.75 166.248C126.225 138.303 123.331 105.975 121.219 68.2163C120.355 50.7031 117.544 32.7957 114.833 18.4713C112.123 4.14681 101.088 4.34275 98.1838 3.95588C96.0406 3.67025 73.6212 2.76874 63.818 2.76874ZM64.1905 6.20694C72.5312 6.11007 91.6863 7.43463 94.9995 7.79882C101.19 8.47908 107.877 9.17564 109.769 21.3491C116.428 60.093 118.369 101.106 110.328 139.875C106.379 153.288 96.4475 161.396 94.5081 162.012L90.2738 161.876C88.9051 164.488 80.2081 172.14 64.1899 172.14C48.1723 172.14 39.4748 164.488 38.106 161.876L33.8717 162.012C31.9323 161.396 22.0174 153.288 18.0692 139.875C10.028 101.106 11.9517 60.093 18.6111 21.3491C20.5033 9.17589 27.2073 8.47945 33.3973 7.79882C41.6268 7.07282 55.8498 6.30369 64.1905 6.20694Z" fill="#a8a89a"/>
<path d="M21.3807 196.77C18.1933 196.795 15.8432 197.813 15.0461 200.377C13.7706 204.48 17.615 210.057 24.243 211.641C30.8712 213.224 38.5075 213.456 39.2156 209.219C39.9239 204.982 34.1263 199.167 27.8506 197.667C25.4973 197.105 23.2931 196.754 21.3807 196.77ZM107.019 196.77C105.106 196.751 102.885 197.105 100.532 197.667C94.256 199.167 88.4753 204.982 89.1834 209.219C89.8918 213.456 97.5111 213.224 104.139 211.641C110.767 210.057 114.629 204.481 113.353 200.378C112.556 197.813 110.206 196.796 107.019 196.77ZM64.2009 201.834C57.754 201.834 50.737 203.993 50.4477 208.185C50.1452 212.564 57.3821 216.773 64.2009 216.773C71.0115 216.773 78.264 212.578 77.9708 208.203C77.6896 204.004 70.6584 201.834 64.2009 201.834ZM22.8905 217.908C19.7031 217.933 17.3533 218.934 16.5562 221.499C15.2806 225.602 19.1251 231.178 25.7531 232.761C32.3813 234.345 40.0175 234.577 40.7257 230.34C41.434 226.103 35.6364 220.288 29.3607 218.788C27.0073 218.226 24.8029 217.892 22.8905 217.908ZM105.51 217.908C103.597 217.889 101.376 218.226 99.0229 218.789C92.7473 220.288 86.9666 226.103 87.6747 230.34C88.383 234.577 96.0022 234.346 102.63 232.762C109.258 231.178 113.12 225.602 111.844 221.499C111.047 218.934 108.697 217.934 105.51 217.908ZM64.1995 223.158C57.7526 223.158 50.7357 225.301 50.4463 229.493C50.1438 233.872 57.3807 238.097 64.1995 238.097C71.0102 238.097 78.2628 233.885 77.9697 229.509C77.6885 225.311 70.6571 223.158 64.1995 223.158ZM24.1256 239.028C20.9382 239.053 18.5712 240.055 17.7742 242.619C16.4987 246.722 20.3601 252.315 26.9881 253.899C33.6163 255.483 41.2358 255.697 41.9439 251.46C42.6522 247.223 36.8715 241.408 30.5957 239.909C28.2423 239.346 26.0379 239.012 24.1256 239.028ZM104.276 239.028C102.364 239.01 100.159 239.346 97.806 239.909C91.5304 241.409 85.7327 247.224 86.4409 251.46C87.1491 255.697 94.7853 255.483 101.413 253.9C108.042 252.316 111.886 246.723 110.611 242.619C109.813 240.055 107.463 239.055 104.276 239.028ZM64.202 244.465C57.7551 244.465 50.7382 246.625 50.4488 250.817C50.1463 255.196 57.3832 259.404 64.202 259.404C71.0127 259.404 78.2653 255.21 77.9722 250.834C77.6909 246.635 70.6595 244.465 64.202 244.465ZM25.3474 260.149C22.16 260.174 19.8101 261.175 19.0131 263.74C17.7375 267.843 21.599 273.436 28.2269 275.02C34.8551 276.604 42.4744 276.835 43.1825 272.598C43.8908 268.361 38.1101 262.529 31.8343 261.03C29.4809 260.467 27.2597 260.133 25.3474 260.149ZM103.042 260.149C101.129 260.13 98.9249 260.467 96.5716 261.03C90.2959 262.529 84.5153 268.361 85.2234 272.598C85.9317 276.835 93.551 276.604 100.179 275.02C106.807 273.436 110.668 267.843 109.393 263.74C108.596 261.176 106.229 260.176 103.042 260.149ZM64.2039 265.789C57.757 265.789 50.7401 267.949 50.4507 272.14C50.1482 276.52 57.3851 280.728 64.2039 280.728C71.0146 280.728 78.2672 276.533 77.9741 272.158C77.6928 267.959 70.6614 265.789 64.2039 265.789Z" fill="#909084"/>
<path d="M64.1931 7.08124C63.7806 7.08124 63.402 7.28893 63.0754 7.62331C62.7485 7.95769 62.4534 8.42937 62.1776 9.01225C61.6269 10.178 61.1435 11.8283 60.7379 13.8562C59.9268 17.9119 59.4338 23.4862 59.4338 29.6419C59.4338 35.7976 59.9269 41.3719 60.7379 45.4275C61.1435 47.4554 61.6266 49.1061 62.1776 50.2718C62.4532 50.855 62.7489 51.3091 63.0754 51.6436C63.4022 51.978 63.7805 52.1857 64.1931 52.1857C64.6056 52.1857 64.9844 51.978 65.311 51.6436C65.6379 51.3092 65.933 50.8547 66.2088 50.2718C66.7594 49.1061 67.2429 47.4554 67.6484 45.4275C68.4596 41.3717 68.9525 35.7975 68.9525 29.6419C68.9525 23.4861 68.4595 17.9118 67.6484 13.8562C67.2428 11.8283 66.7597 10.178 66.2088 9.01225C65.9331 8.42912 65.6374 7.95775 65.311 7.62331C64.9841 7.28893 64.6057 7.08124 64.1931 7.08124ZM64.1931 7.708C64.3943 7.708 64.6181 7.80578 64.8706 8.06391C65.1231 8.32266 65.3931 8.73996 65.6497 9.28309C66.1629 10.3694 66.6391 11.9769 67.0387 13.9748C67.8379 17.9706 68.3259 23.5199 68.3259 29.6419C68.3259 35.7638 67.8378 41.3132 67.0387 45.3089C66.6393 47.3068 66.163 48.9144 65.6497 50.0006C65.3929 50.5437 65.1228 50.9446 64.8706 51.203C64.6181 51.4611 64.3943 51.5757 64.1931 51.5757C63.9918 51.5757 63.7681 51.4611 63.5156 51.203C63.2631 50.9443 63.01 50.5437 62.7534 50.0006C62.2403 48.9144 61.7643 47.3068 61.3647 45.3089C60.5655 41.313 60.0604 35.7638 60.0604 29.6419C60.0604 23.5199 60.5655 17.9705 61.3647 13.9748C61.764 11.9769 62.24 10.3694 62.7534 9.28309C63.0103 8.73996 63.2634 8.32235 63.5156 8.06391C63.7681 7.80578 63.9918 7.708 64.1931 7.708Z" fill="#1a1e14"/>
<path d="M64.1931 12.3317C63.022 12.3317 62.059 12.691 62.059 13.1446C62.059 13.5978 63.022 13.9747 64.1931 13.9747C65.3642 13.9747 66.3105 13.5977 66.3105 13.1446C66.3105 12.6915 65.3642 12.3317 64.1931 12.3317ZM64.1931 20.2923C63.022 20.2923 62.059 20.6687 62.059 21.1224C62.059 21.5755 63.022 21.9353 64.1931 21.9353C65.3642 21.9353 66.3105 21.5759 66.3105 21.1224C66.3105 20.6692 65.3642 20.2923 64.1931 20.2923ZM64.1931 28.27C63.022 28.27 62.059 28.6293 62.059 29.0829C62.059 29.536 63.022 29.913 64.1931 29.913C65.3642 29.913 66.3105 29.5366 66.3105 29.0829C66.3105 28.6298 65.3642 28.27 64.1931 28.27ZM64.1931 36.2473C63.022 36.2473 62.059 36.607 62.059 37.0606C62.059 37.5138 63.022 37.8903 64.1931 37.8903C65.3642 37.8903 66.3105 37.5137 66.3105 37.0606C66.3105 36.6075 65.3642 36.2473 64.1931 36.2473ZM64.1931 44.2083C63.022 44.2083 62.059 44.5843 62.059 45.038C62.059 45.4911 63.022 45.8512 64.1931 45.8513C65.3642 45.8513 66.3105 45.4916 66.3105 45.038C66.3105 44.5848 65.3642 44.2083 64.1931 44.2083Z" fill="#1a1e14"/>
<path fill-rule="evenodd" clip-rule="evenodd" d="M101.381 163.769C100.332 163.826 99.5468 164.671 98.3491 166.141C92.3052 173.558 77.0589 176.117 77.0589 176.117C71.8809 176.988 72.4342 179.517 72.5536 180.944C72.7173 182.905 73.5419 188.533 74.3997 192.36C75.0288 195.167 78.0031 194.338 79.5488 193.783C89.2545 190.295 101.481 182.209 106.886 173.509C108.919 170.235 110.035 169.029 107.343 167.022C106.614 166.478 105.717 165.91 104.65 165.176C103.18 164.164 102.197 163.727 101.381 163.769ZM28.193 164.633C26.7245 164.565 25.3304 166.107 25.3304 166.107L21.8245 168.918C21.417 169.793 21.1281 170.683 21.9769 171.916C21.6613 172.515 30.4664 182.851 32.9183 184.518C34.0732 185.302 36.1047 187.629 38.2705 185.144L43.1823 179.521C44.01 178.572 46.8835 176.036 42.6405 173.982C37.8943 172.074 33.3042 169.116 29.6323 165.344C29.1773 164.846 28.6824 164.656 28.193 164.633Z" fill="#909084"/>
<path fill-rule="evenodd" clip-rule="evenodd" d="M64.193 158.207C56.4442 158.263 49.1318 158.047 42.1323 159.799C39.1076 160.807 39.5417 161.885 40.8113 163.373C43.3876 166.393 55.0876 171.499 64.1932 171.359C73.2989 171.22 81.0884 168.648 87.5753 163.373C88.845 161.885 89.2959 160.807 86.2711 159.799C82.4856 158.485 71.9412 158.151 64.193 158.207Z" fill="#909084"/>
<path d="M72.4774 163.895H55.9273C55.2458 163.895 54.6932 164.447 54.6932 165.129C54.6932 165.81 55.2458 166.363 55.9273 166.363H72.4774C73.159 166.363 73.7115 165.81 73.7115 165.129C73.7115 164.447 73.159 163.895 72.4774 163.895Z" fill="#6a8a5a"/>
<path fill-rule="evenodd" clip-rule="evenodd" d="M64.1931 145.144C73.7063 145.132 93.4795 144.836 102.488 144.086C104.025 143.891 107.006 143.671 107.722 138.869C108.444 134.03 110.138 94.7509 109.653 87.5658C109.167 80.3695 105.213 80.9856 102.692 80.9431C77.0371 80.1843 51.3832 80.49 25.7287 80.9431C23.207 80.9868 19.2531 80.3695 18.7675 87.5658C18.2824 94.7509 19.9765 134.03 20.6983 138.869C21.4145 143.671 24.3788 143.891 25.9151 144.086C29.6965 144.565 54.5837 145.155 64.1931 145.144Z" fill="#8b956d"/>
<path d="M83.443 58.7062H44.9598C44.7089 58.7062 44.5056 58.912 44.5056 59.1659V66.3765C44.5056 66.6304 44.7089 66.8365 44.9598 66.8365H83.443C83.6938 66.8365 83.8971 66.6304 83.8971 66.3765V59.1659C83.8971 58.912 83.6938 58.7062 83.443 58.7062Z" fill="#1a1e14"/>
<path d="M47.427 65.077V60.534H48.316V62.333H48.659V61.731H49.555V62.333H49.898V60.534H50.794V65.077H49.898V63.278H48.316V65.077H47.427ZM51.6448 65.077V61.731H52.2608V61.136H52.8768V60.534H53.7728V61.136H54.3888V61.731H55.0118V65.077H54.1158V63.88H52.5338V65.077H51.6448ZM52.5338 62.921H54.1158V62.088H53.4998V61.493H53.1498V62.088H52.5338V62.921ZM56.4102 65.077V64.482H55.7942V61.136H56.4102V60.534H58.5382V61.136H59.1612V62.683H58.2652V61.493H56.6832V64.125H58.2652V62.921H59.1612V64.482H58.5382V65.077H56.4102ZM60.012 65.077V61.136H60.628V60.534H61.517V61.493H60.901V62.333H61.244V61.731H61.867V61.136H62.483V60.534H63.379V61.493H62.756V62.088H62.14V62.683H61.517V62.921H62.14V63.523H62.756V64.125H63.379V65.077H62.483V64.482H61.867V63.88H61.244V63.278H60.901V65.077H60.012ZM66.2471 65.077V64.482H65.6311V61.136H66.2471V60.534H68.3751V61.136H68.9981V62.683H68.1021V61.493H66.5201V64.125H68.1021V62.921H68.9981V64.482H68.3751V65.077H66.2471ZM70.4649 65.077V64.482H69.8489V60.534H70.7379V64.125H72.3199V63.523H73.2159V64.482H72.5929V65.077H70.4649ZM74.6826 65.077V64.482H74.0666V60.534H74.9556V64.125H76.5376V60.534H77.4336V64.482H76.8106V65.077H74.6826ZM78.9004 65.077V64.482H78.2844V61.136H78.9004V60.534H81.0284V61.136H81.6514V62.683H81.0284V62.921H81.6514V64.482H81.0284V65.077H78.9004ZM79.1734 64.125H80.7554V63.278H79.5164V62.333H80.7554V61.493H79.1734V64.125Z" fill="#c4c4b0"/>
</g>
<defs>
<clipPath id="clip0_1_2">
<rect width="128.4" height="300" fill="white"/>
</clipPath>
</defs>
</svg>
